<?xml version="1.0" encoding="utf-8"?>
<svg version="1.1" xmlns="http://www.w3.org/2000/svg" xmlns:xlink="http://www.w3.org/1999/xlink" x="0px" y="0px"
	 viewBox="0 0 1920 1080" xml:space="preserve">
<path id="terrain--ground" fill="rgba(25, 25, 25, .1)" stroke="rgb(20, 20, 20)" stroke-width="1" d="M256.97,1079.86c-85.62,0-171.25,0-256.97,0C0,733.91,0,387.95,0,41.99
	c5.89-4.4,12.57-8.08,17.51-13.37C25.91,19.62,33.22,9.6,40.99,0c5.67,0,11.33,0,17,0c-4.84,8.79-1.77,17.71-0.7,26.67
	c0.39,3.3,0.55,7.38-1.02,10.01c-2.52,4.2-1.54,7.02,1.22,10.04c1.67,1.83,3.35,3.71,5.31,5.19c0.77,0.58,2.44,0.5,3.48,0.13
	c3.8-1.37,6.61,0.17,7.76,4c0.88,2.92,2.13,5.79,3.64,8.44c4.12,7.24,9.39,13.96,9.66,23.61c2.73,0,5.3,0.32,7.77-0.06
	c5.83-0.9,10.53,1.5,10.55,7.46c0.03,6.71,2.32,11.38,7.41,15.19c0.43,0.32,0.52,1.12,0.76,1.69c-0.52-0.18-1.04-0.36-1.55-0.53
	c-2.7,5.4-5.61,10.72-7.98,16.26c-0.68,1.59-0.43,4.24,0.48,5.74c2.43,3.97-0.02,4.53-2.93,5.18c-1.77,0.39-4,0.38-5.15,1.47
	c-1.28,1.21-2.65,3.96-2.09,5.16c1.58,3.4,3.75,6.75,6.46,9.28c1.16,1.08,4.26,0.05,6.48,0.05c0.99,0,1.97,0.23,2.96,0.29
	c4.04,0.26,8.1,0.35,12.11,0.83c1.67,0.2,3.26,1.16,4.85,1.87c2.79,1.26,5.54,3.66,8.31,3.66c5.15,0,8.81,1.97,11.68,5.19
	c-0.95,5.97-1.85,11.64-3.01,18.92c3.34-1.81,5.16-3.41,7.19-3.73c2.36-0.37,4.89,0.39,7.34,0.66c-0.37,2.25-0.32,4.69-1.24,6.69
	c-0.85,1.84-3.05,3.01-4.11,4.8c-1.62,2.73,0.07,6.58,2.89,7.39c3.18,0.91,9.79-2.13,11.36-4.98c4.1,0.8,8.07,1.71,12.08,2.29
	c1.19,0.17,2.51-0.55,3.78-0.86c-0.95-1.18-1.75-2.56-2.9-3.49c-2.13-1.72-4.48-3.18-6.73-4.75c0.22-0.56,0.44-1.12,0.65-1.69
	c6.72-0.37,13.43-0.87,20.15-1.07c5-0.15,6.45,2.05,4.6,6.77c-0.53,1.35-1.63,2.48-2.45,3.72c-2.12,3.19-0.95,6.15,2.46,7.5
	c1.85,0.73,3.31,2.43,4.94,3.7c1.41,1.1,2.73,2.33,4.25,3.26c1.91,1.17,3.98,2.08,6.73,3.49c-1.76,1.46-2.91,2.29-3.91,3.27
	c-1.2,1.17-3.25,2.53-3.17,3.7c0.11,1.72,1.39,3.98,2.86,4.86c2.31,1.38,5.16,1.93,7.84,2.62c5.39,1.39,11.68,1.36,16,4.28
	c5.89,3.98,10.56,9.93,15.24,15.47c8.2,9.69,18.07,17.43,29.33,22.71c8.75,4.1,18.57,6.05,28.05,8.42
	c3.15,0.78,6.78,0.23,10.09-0.32c7.98-1.32,15.87-3.21,23.87-4.45c5.07-0.79,8.56,1.83,10.03,6.73c1.42,4.71,3.4,8.86,6.76,12.71
	c4.74,5.44,4.41,5.53,10.79,1.17c2.48-1.7,5.22-5.71,9.16-2.54c2.83,2.28,5.57,4.79,7.84,7.61c2.81,3.49,5.9,1.41,8.54,0.57
	c1.42-0.45,2.73-3,3.07-4.8c1.58-8.25,2.42-16.65,4.26-24.84c1.58-7.04,6.76-11.22,13.53-13.37c6.89-2.19,13.91-4.03,20.68-6.54
	c8.33-3.08,15.67-0.54,19.18,7.2c3.43,7.58,17.48,10.76,23.71,5.17c3.15-2.83,5.78-2.88,8.54,0.21c1.21,1.36,2.06,3.28,3.55,4.09
	c3.18,1.73,7.15,4.72,9.95,3.98c10.78-2.84,15.14-12.19,10.86-22.58c-1.33-3.23-4.52-5.92-7.38-8.23c-2.45-1.98-4.5-3.98-2.76-6.88
	c1.76-2.93,4.19-5.68,6.92-7.71c1.18-0.88,3.96-0.04,5.77,0.67c0.5,0.2,0.55,2.86,0.06,4.09c-2.46,6.15-0.95,11.12,4.12,12.66
	c8.94,2.73,22.51-5.01,25.12-13.95c0.89-3.04,2.73-5.89,4.56-8.53c7.94-11.49,15.59-22.93,17.63-37.36
	c1.67-11.82,6.82-21.42,20.04-24.38c2.53-0.57,5.13-3.1,6.66-5.4c3.11-4.68,5.56-9.8,8.21-14.78c5.18-9.76,12.72-17.48,21.64-23.67
	c7.45-5.17,15.68-8.43,21.02-17.08c7.93-12.84,18.13-24.28,27.23-36.41c5.01-6.69,9.49-7.14,15.3-0.65
	c1.64-1.86,3.48-3.52,4.76-5.52c2.99-4.68,7.11-5.81,12.05-4.07c4.52,1.59,8.79,4.05,13.4,5.2c2.7,0.68,5.97-0.11,8.74-0.99
	c0.79-0.25,0.75-3.12,1.24-5.47c1.38-1.09,3.33-2.92,5.56-4.34c6.29-3.99,6.43-8.92,0.34-12.94c-0.96-0.63-2.12-2.02-2.01-2.91
	c0.13-1.04,1.43-2.46,2.45-2.7c0.96-0.22,2.47,0.65,3.31,1.48c1.58,1.57,2.84,3.45,4.54,5.59c8.05-7.58,15.82-14.4,17.93-25.22
	c0.72-3.71,0.92-7.51,1.36-11.27c103.99,0,207.97,0,311.96,0c-0.6,4.04-2.25,8.28-1.55,12.08c0.92,5.03,0.06,9.02-2.45,13.18
	c-1.03,1.7-1.82,3.97-1.65,5.88c0.52,5.89,2.27,11.75,2.18,17.6c-0.08,5.17,2.79,5.84,6.34,6.17c7.78,0.72,15.12-4.42,18.44-12.53
	c2.68-6.55,5.07-13.04-4.11-19.04c4.06-1.54,6.47-3.21,8.85-3.18c3.53,0.05,7.13,1.03,10.54,2.13c9.85,3.17,19.53,7.51,30.21,5.62
	c5.9-1.04,11.97-3.27,14.76-8.82c2.93-5.81,5.57-12.13,4.44-19.09c16.33,0,32.66,0,48.99,0c-0.21,0.79-0.59,1.57-0.6,2.36
	c-0.02,2.1-0.63,5.44,0.36,6.04c1.74,1.06,5.03,1.35,6.72,0.35c4.13-2.43,7.71-5.78,11.51-8.76c49.99,0,99.99,0,149.98,0
	c4.81,4.46,9.56,9,14.51,13.29c0.71,0.62,2.54,0.43,3.64,0.03c6.54-2.39,10.45-7.61,13.85-13.33c29.33,0,58.66,0,87.99,0
	c-1.53,7.13-3.06,14.27-4.69,21.85c1.29,0.9,2.68,2.06,4.25,2.91c3.06,1.65,3.57,3.91,2.44,7.07c-2.16,6.04-4.71,12.04-5.98,18.29
	c-1.9,9.34-7.64,14.44-16.3,16.44c-10.28,2.38-19.43,6.27-25.91,15.07c-0.79,1.07-2.59,2.35-3.62,2.13
	c-5.08-1.08-10.04-2.78-15.1-3.95c-2.42-0.56-5.13-1.04-7.47-0.51c-6.07,1.37-11.94,3.59-18.01,4.96c-4,0.9-7.48,1.98-10.03,5.56
	c-1.71,2.41-3.89,4.74-6.37,6.29c-4.18,2.61-5.68,6.48-7.32,10.8c-1.95,5.14-3.74,10.74-9.41,13.45c-4.67,2.24-9.7,4.02-13.84,7.01
	c-6.27,4.52-12.35,8.37-20.48,5.68c-0.58-0.19-1.36-0.04-1.97,0.16c-9.81,3.22-19.62,6.37-25.33,16.15
	c-4.24,7.26-10.53,10.37-19.15,9.85c-3.71-0.23-8.28,0.71-11.22,2.83c-9.77,7.06-19.06,14.81-28.29,22.58
	c-1.11,0.93-1.51,3.92-0.92,5.44c1.86,4.74,1.86,8.93-1.58,12.9c-1.19,1.37-2.9,2.73-3.21,4.32c-0.46,2.4-0.35,7.03,0.32,7.18
	c6.55,1.5,4.83,6.41,5.3,10.71c0.8,7.24-1.47,12.73-7.09,17.5c-5.55,4.71-11.32,9.53-12.97,17.32c-0.44,2.09-2.09,4.26-1.72,6.1
	c0.42,2.08,2.43,5.35,3.85,5.41c3.44,0.13,7.17-0.58,9.04-4.65c2.59-5.62,4.68-6.22,10.15-3.19c2.75,1.52,5.12,3.89,8,4.99
	c2.7,1.03,6.18,1.91,8.73,1.08c8.3-2.71,13.55-12.4,11.69-21.97c-1.41-7.24,1.03-13.31,3.61-19.58c1.26-3.06,3.12-3.68,6.35-2.53
	c1.84,0.66,4.67,0.5,6.26-0.52c3.16-2.03,6.44-4.47,8.49-7.53c5.97-8.9,14.09-15.35,22.49-21.63c6.67-4.99,13.2-10.17,15.01-19.03
	c0.66-3.23,1.05-6.55,2.06-9.68c2.87-8.94,5.18-18.87,14.69-22.95c11.78-5.05,24.34-8.25,36.25-13.02
	c7.3-2.93,14.97-6.27,20.6-11.46c3.19-2.94,6.05-4.73,9.65-6.8c3.72-2.14,6.94-2.76,10.79-3.13c4.26-0.41,6.93-3.16,9.46-6.55
	c1.54-2.06,4.49-3.77,7.04-4.19c4.18-0.68,8.55-0.18,12.87-0.18c1.16-7.77,4.86-12.03,12.56-12.2c1.91-0.04,4.03-0.73,5.64-1.76
	c5.37-3.45,10.37-1.98,15.25,0.81c5.22,2.98,12.21,1.19,13.38-4.44c3.44,0.77,6.86,1.86,10.35,2.19c1.88,0.18,4.4-0.37,5.74-1.58
	c5.67-5.12,11.22-10.37,14.11-17.83c1.42-3.66,4.04-6.42,8.65-6.31c2.12,0.05,4.26-0.54,6.37-0.94c6.74-1.28,8.23-3.02,9.58-10.38
	c0.2-1.11,1.1-2.36,2.05-3.01c2.3-1.57,4.8-2.86,7.26-4.17c2.75-1.47,5.35-2.88,7.28,1.4c0.63,1.4,2.61,2.61,4.21,3.07
	c3.32,0.96,6.77,1.55,10.21,1.9c1.49,0.15,3.56-0.16,4.53-1.11c7.6-7.4,16.37-12.96,26.29-16.49c11.08-3.94,21.88-10.3,34.41-5.15
	c3.51,1.44,7.14,2.62,10.8,3.62c3.63,0.99,7.35,1.73,11.07,2.35c2.74,0.45,5.55,0.5,8.33,0.78c8.64,0.9,16.92,0.52,23.96-5.62
	c4.5-3.92,9.15-7.68,13.91-11.28c6.51-4.92,13.24-3.54,16.75,3.95c2.57,5.49,4.15,11.47,5.84,17.33c1.37,4.74,1.28,10.12,3.5,14.35
	c6.18,11.74,12.37,23.66,20.19,34.31c7.01,9.54,13.69,19.01,18.75,29.76c2.08,4.41,5.97,8.29,9.82,11.43
	c3.1,2.53,4.43,4.52,2.53,8.19c-2.94,5.7-1.83,10.69,2.19,15.65c3.44,4.24,6.14,9.07,9.17,13.64c10.26,15.5,21.12,30.66,30.56,46.64
	c5.56,9.42,9.56,19.93,13.08,30.35c7.71,22.81,14.7,45.91,30.06,65.1c8.06,10.07,16.71,19.65,25.1,29.46c0,11.33,0,22.66,0,34
	c-5.41-2.7-10.91-5.25-16.21-8.16c-2.94-1.61-5.4-4.1-8.35-5.7c-3.66-1.98-7.53-4.65-11.45-4.9c-9.03-0.58-15.42,4.49-20.55,11.75
	c-3.42,4.84-7.13,9.82-11.76,13.38c-7.2,5.53-15.19,10.08-23.07,14.66c-2.27,1.32-5.39,2-8,1.76c-4.73-0.43-9.37-1.79-14.05-2.74
	c-4.2-0.86-5.97-3.61-5.09-7.99c1.53-7.66-3.19-13.64-10.66-11.77c-6.96,1.75-9.59-2.12-12.79-6.3c-0.91-1.19-1.49-2.65-2.51-3.71
	c-3.99-4.16-7.01-9.94-14.47-8.3c-10.8,2.36-21.64,4.52-32.48,6.71c-2.74,0.55-5.55,1.35-8.3,1.23c-3.91-0.17-6.72,0.72-8.27,4.6
	c-0.54,1.35-1.72,2.43-2.56,3.66c-4.09,5.98-7.45,12.38-7.23,19.76c0.17,5.56-2.5,9.28-5.73,13.26c-5.25,6.47-10.03,13.32-15.01,20
	c-0.99,1.32-1.8,2.9-3.08,3.85c-2.99,2.21-6.48,3.8-9.28,6.21c-6.87,5.9-13.33,12.26-20.2,18.16c-5.03,4.32-10.59,7.93-11.47,15.47
	c-0.21,1.79-2.41,3.88-4.22,4.84c-8.46,4.52-17.1,8.7-25.68,12.98c-7.34,3.66-14.62,5.76-22.78,1.82
	c-6.86-3.31-14.17-5.67-21.26-8.52c-7.15-2.88-13.81-1.23-20.64,1.5c-6.43,2.57-13.22,4.2-19.72,6.61
	c-3.32,1.24-6.62,2.93-9.41,5.09c-2.58,1.99-4.16,5.26-6.73,7.26c-4.83,3.77-8.88,8.55-15.77,9.48
	c-11.11,1.5-20.71-8.94-17.41-19.69c0.63-2.07,1.84-4.1,1.89-6.17c0.05-2.11-0.3-5.3-1.67-6.18c-5.68-3.67-11.65-7.05-17.84-9.77
	c-4.83-2.13-9.38,0.41-12.04,5.77c-1.8,3.62-3.28,7.15-8.4,7.21c-6.27,0.08-12.17,8.61-10.11,14.57c0.74,2.12,2.6,5.12,4.34,5.41
	c6.44,1.08,13.12,2.43,19.4-1.06c2.16-1.2,9.61,0.13,10.08,2.3c0.77,3.55,1.33,7.57,0.39,10.94c-0.85,3.01-9.49,5.95-11.87,4.35
	c-3.43-2.31-6.24-1.04-9.37,0.06c-3.45,1.21-7,2.16-10.4,3.48c-1.46,0.57-3.21,1.47-3.93,2.73c-4.84,8.57-9.53,17.22-14.03,25.97
	c-0.65,1.26-0.67,3.64,0.1,4.7c2.33,3.16,1.18,5.85-0.19,8.76c-1.13,2.4-2.53,4.81-2.95,7.36c-0.32,1.89,0.12,4.52,1.29,5.95
	c6.05,7.46,12.53,14.56,18.62,21.99c1.05,1.29,1.7,3.82,1.19,5.32c-4.74,13.84-11.23,26.84-19.18,39.16
	c-2.66,4.12-6.43,8.52-2.26,14.02c0.3,0.4-0.12,1.71-0.59,2.28c-4.06,4.99-7.67,10.65-14.4,12.4
	c-21.71,5.63-42.79,13.72-65.25,16.99c4.43,4.41,8.84,8.81,13.31,13.26c-3.1,4.89-5.87,1.43-8.02-0.03
	c-4.28-2.92-8.22-5.27-13.76-3.07c-8.62,3.42-17.36,6.59-26.21,9.38c-4.35,1.37-9.07,2.45-13.58,2.31
	c-13.85-0.45-27.55-2.04-40.44,5.7c-14.77,8.87-30.06,16.88-45.15,25.2c-4.37,2.41-7.93,5.27-8.71,10.68
	c-0.19,1.3-1.43,2.57-2.44,3.62c-3.71,3.83-7.86,7.28-11.22,11.39c-9.36,11.41-21.61,15.34-35.79,14.67
	c-13.09-0.62-26.19-1.04-39.24-2.15c-6.86-0.58-14.1-1.31-20.27-4.01c-6.7-2.93-12.44-2.28-18.49,0.31
	c-1.98,0.85-3.9,2.23-5.34,3.83c-3.26,3.61-6.19,7.51-9.25,11.28c-7.25-6.8-15.49-4.31-22.87-4.41c-6.82-0.09-13.65,2.41-20.53,3.41
	c-1.49,0.22-3.78-0.69-4.72-1.86c-3.18-3.95-5.96-7.91-12.09-5.46c-1.35,0.54-3.24-0.33-4.88-0.47
	c-10.46-0.83-11.43-2.68-4.51-11.44c1.09-1.38,1.68-5.1,0.98-5.58c-1.74-1.22-4.75-2.21-6.52-1.5c-4.23,1.72-7.91,4.73-12.05,6.72
	c-2.35,1.13-5.16,1.36-7.8,1.82c-1.86,0.32-4.7-0.4-5.48,0.6c-2.52,3.23-5.59,6.87-6.08,10.66c-1.37,10.65-1.83,21.45-2.09,32.2
	c-0.15,6.09-3.23,9.08-8.92,7.25c-2.37-0.76-4.71-1.62-7.02-2.55c-4.41-1.77-6.86,0-8.36,4.19c-3.02,8.41-1.07,15.55,5.94,21.06
	c0.52,0.41,1.29,0.68,1.55,1.2c2.96,6.04,8.52,8.02,14.41,7.65c5.54-0.34,11.01-2.22,16.41-3.78c1.12-0.32,2.45-2.19,2.54-3.43
	c0.65-9.03,1.22-18.07,1.38-27.12c0.07-4.09,3.04-8.17,5.99-6.72c3.5,1.73,5.18,0.68,7.29-2.31c6.51-9.18,17.46-8.9,23.75,0.28
	c1.03,1.5,2.49,2.76,3.27,4.37c1.38,2.86,3.27,5.86,3.39,8.86c0.42,10.56,0.18,21.15,0.19,31.73c0.01,6.97,6.23,12.99,13.13,13.41
	c6.19,0.38,10.18-3.15,13.28-7.36c3.2-4.35,6.97-6.72,12.14-7.76c5.08-1.02,9.25-10.85,7.06-15.6c-2.36-5.13-4.53-10.34-6.89-15.47
	c-1.17-2.55-2.58-4.99-4.11-7.91c1.49-1.6,3.44-3.68,5.5-5.87c1.17,4.96,1.77,9.52,3.37,13.7c1.73,4.52,4.87,4.49,12.45,0.08
	c0.7,3.03,2.49,6.13,1.79,8.49c-3.43,11.47-0.8,22.73,0.48,34.01c0.3,2.69,2.52,5.16,4.15,8.3c1.21-1.54,1.63-1.88,1.79-2.31
	c0.34-0.92,0.65-1.88,0.78-2.85c1.35-10.49,2.98-20.96,3.86-31.49c0.66-7.91,1.72-15.71-7.7-21.02c-3.84-2.16-5.71-9.19-6.87-14.36
	c-1.24-5.49,6.39-11.72,13.87-12.63c9.59-1.16,19.08-1.35,28.62,0.91c10.85,2.56,22.29,2.96,30.91,11.77
	c4.15,4.24,6.51,9.96,4.51,16.36c-9.41-4.45-18.97-8.26-28.81,0.4c0.18-3.34,0.74-6.24,1.9-8.87c2.31-5.24-0.98-8.87-3.89-11.96
	c-1.51-1.6-5.09-1.26-7.73-1.79c0.18,2.15,0.7,2.97,1.36,3.66c6.15,6.53,6.09,6.82,2.44,14.76c-1.93,4.2-3.72,8.53-4.9,12.98
	c-1.25,4.73-1.32,9.35,3.16,13.13c4.74,4.01,9.6,7.02,16.21,5.96c-6.79,1.49-13.47,2.56-20.13,3.72
	c-15.92,2.77-22.98,9.82-25.75,25.36c-0.86,4.81-1.21,10.01-3.39,14.22c-3.4,6.58-8.45,12.29-12.25,18.69
	c-4.64,7.81-12.05,13.91-13.12,23.97c-1.04,9.77-0.07,18.21,7.68,25.23c6.66,6.03,12.56,12.91,19.22,18.94
	c5.04,4.56,5.5,9.98,4.52,15.92c-0.53,3.18-1.57,6.28-2.65,10.47c1.83-1.69,3.3-2.58,4.11-3.88c3.44-5.54,1.91-17.22-2.76-21.97
	c-4.79-4.87-9.74-9.59-14.44-14.55c-3.76-3.97-8.17-7.71-10.66-12.42c-5.01-9.47-3.67-19.32,1.84-28.25
	c5.23-8.48,11.02-16.62,16.81-24.72c3.27-4.57,5.33-9.39,6.13-14.98c0.73-5.08,1.98-10.11,3.4-15.05c0.66-2.3,1.75-5.42,3.55-6.28
	c6.96-3.36,14.14-6.45,21.53-8.71c7.1-2.17,14.52-3.4,21.87-4.63c3.99-0.67,8.12-0.57,12.19-0.64c4.19-0.06,8.96,2.01,12.11-2.17
	c4.28-5.7,9.8-7.45,16.55-6.61c5.11,0.64,8.74-0.95,10.02-6.49c0.43-1.87,1.67-3.54,2.58-5.38c1,0.09,1.85,0.05,2.62,0.26
	c7.4,2.03,14.49,2.92,21.43-2.05c1.55-1.11,5.21-0.02,7.57,0.89c5.67,2.18,11.11,4.93,16.72,7.27c0.93,0.39,2.54,0.29,3.31-0.29
	c5.72-4.31,11.99-8.18,16.69-13.44c3.38-3.78,4.53-9.53,6.8-14.34c4.21-8.93,7.72-18.45,18.55-21.87c1.33-0.42,2.94-1.99,3.24-3.3
	c1.61-6.92,3.35-13.88,4.07-20.93c0.96-9.42,7.21-17.36,16.82-18.32c10.11-1.02,19.52-3.89,28.36-8.6c4.32-2.3,8.86-4.86,12.1-8.4
	c6.17-6.74,13.01-11.66,22.25-12.61c5.7-0.58,11.61-2.05,17.08-1.09c6.14,1.08,11.66,1.67,17.13-1.64c2.06-1.25,4.87-2.03,6.05-3.85
	c3.32-5.13,6.43-10.51,8.78-16.14c3.14-7.56,8.47-11.89,16.16-14.16c2.49-0.73,5.13-2.54,6.69-4.62
	c7.49-9.95,14.48-20.29,21.96-30.24c3.84-5.11,7.55-10.92,12.72-14.26c7.71-4.98,16.4-8.76,25.12-11.75
	c9.9-3.4,20.23-4.9,30.91-2.81c6.63,1.29,13.53,2.32,20.21,1.9c10.02-0.63,15.08,1.28,20.08,10.01
	c7.04,12.28,15.21,15.59,28.63,10.64c6.83-2.52,13.67-2.62,20.64-2.27c5.55,0.28,6.11,1.66,5.91,7.13
	c-0.23,6.42,2.15,12.97,7.27,16.09c3.55,2.16,9.59,1.01,14.32,0.21c3.63-0.62,5.45-6.51,3.58-9.24
	c-5.22-7.61-10.46-15.22-15.75-22.79c-1.86-2.66-0.93-3.96,1.72-5.36c2.3-1.22,4.69-2.93,6.12-5.04c4.32-6.4,10.15-10.3,17.58-11.93
	c4.95-1.09,9.9-2.54,14.92-2.94c8.09-0.64,11.5-6.43,15.32-12.17c0.56-0.84,3.02-1.52,3.67-1.03c5.72,4.3,11.52,4.1,17.09,0.24
	c5.63-3.9,6.89-9.61,5.84-16.23c-0.33-2.1,0.2-4.74,1.28-6.58c2.02-3.45,4.73-6.49,7.16-9.7c1.9-2.51,4.1-6.25,7.32-4.09
	c1.74,1.17,1.27,5.64,1.78,8.63c0.02,0.14-0.08,0.32-0.16,0.47c-3.67,7.08-0.85,13.12,2.91,19.11c2.93,4.67,7.42,4.97,11.88,3.94
	c4.12-0.95,6.35-4.62,6.43-8.6c0.16-7.89,0.16-15.84-0.7-23.67c-1.11-10.16-3.13-20.18,4.89-28.75c2.02-2.17,3.39-4.93,5.25-7.26
	c3.84-4.83,8.35-8.81,15.01-8.5c4.03,0.19,8.07,0.82,12.03,1.62c6.07,1.24,12.83-4.87,12.14-10.84c-0.24-2.05,0.83-4.24,1.31-6.37
	c2.03,0.57,4.32,0.73,6.04,1.8c4.2,2.62,8.62,1.31,9.94-3.77c-3.77-0.51-3.51-2.75-3.32-6.1c0.23-4.1-0.69-8.65-2.44-12.38
	c-3.38-7.21-1.37-11.35,6.56-10.92c6,0.33,10.96-0.97,15.52-5.18c1.96-1.8,5.37-2.36,8.23-2.77c5.84-0.85,9.02,4.1,13.41,6.57
	c15.48,8.7,31.14,17.1,46.92,25.25c3.41,1.76,7.59,2.73,11.44,2.83c7.62,0.21,15.26-0.44,22.89-0.73c0,124.98,0,249.97,0,374.95
	c-3.36,1.81-6.64,3.78-10.08,5.4c-15.66,7.37-30.26,17.87-48.84,16.69c-0.33-0.02-0.69,0.18-0.99,0.1
	c-3.12-0.94-7.17-1.02-9.16-3.07c-4.91-5.08-12.27-8.1-14.19-15.88c-0.21-0.85-1.22-1.53-1.92-2.23c-3.85-3.87-4.15-8.74,0.02-12.13
	c3.74-3.04,5.43-6.89,7.62-10.94c2.02-3.74,7.51-5.59,11.42-8.34c0.8-0.56,1.51-1.34,2.08-2.15c2.88-4.11,0.81-8.76-4.11-9.47
	c-1.63-0.23-3.52-0.31-4.79-1.18c-4.92-3.38-8.34-0.63-10.13,3.23c-2.58,5.59-5.08,9.36-11.7,5.39c-0.32-0.2-1.01,0.01-1.44,0.21
	c-6.34,3.06-14.46,1.98-19.34,8.49c-2,2.66-4.2,2.06-6.21-0.27c-5.63-6.53-13.58-8.52-21.36-10.85c-8.65-2.6-18.29-0.94-26.34-6.46
	c-2.54-1.74-4.98-0.02-6.59,2.63c-3.98,6.55-8.22,12.81-14.75,17.3c-3.14,2.16-5.98,2.02-7.85-0.58c-1.05-1.46-0.72-4.64,0.11-6.55
	c1.17-2.67,3.76-4.71,5.03-7.36c0.99-2.08,2-5.29,1.08-6.94c-2.79-5.03-7.22-8.92-13.09-9.82c-5.88-0.9-11.91-1.1-17.88-1.16
	c-12.66-0.14-25.32-0.03-37.99,0.07c-1.79,0.01-3.75,0.15-5.33,0.88c-12.91,5.95-24.42,13.41-30.9,26.93
	c-3.2,6.68-1.79,9.98,5.44,10.03c9.43,0.06,18.87,0.12,28.3-0.08c4.45-0.09,8.92-0.42,12.21-4.38c0.7-0.85,2.96-0.95,4.3-0.61
	c4.71,1.19,9.34,2.73,14,4.13c0.63,0.19,1.36,0.23,1.86,0.59c1.4,0.99,0.69,13.5-0.75,14.56c-0.85,0.62-1.66,1.31-2.87,2.27
	c2.65,1.67,4.81,3.03,8.39,5.29c-3.45,1.4-5.66,2.84-8.01,3.11c-2.91,0.34-5.95-0.17-8.9-0.53c-4.93-0.59-9.72-0.41-13.79,2.79
	c-4.17,3.29-8.41,6.55-12.16,10.29c-3.09,3.08-5.15,2.23-7.95-0.26c-4.95-4.41-9.96-9.05-17.62-6.2c-1.08,0.4-2.58-0.47-3.88-0.43
	c-1.56,0.05-3.39,0.01-4.61,0.78c-5.21,3.3-9.32,5.58-15.2-0.36c-3.34-3.38-10.39-4.89-15.1-5.26c-8.52-0.67-13.55-4.76-16.99-11.02
	c-4.59-8.37-13.05-9.54-20.2-10.21c-9.98-0.93-20.3,0.56-29.44,6.66c-3.38,2.25-8.48,2.38-12.83,2.49
	c-1.76,0.04-3.65-2.48-5.38-3.94c-2.93-2.47-5.44-1.76-8.05,0.99c-3.69,3.9-7.9,7.35-12.16,10.65c-0.94,0.73-3,0.01-4.55-0.04
	c0.46-1.46,0.51-3.29,1.44-4.33c5.19-5.8,10.56-11.43,15.92-17.07c4.17-4.39,8.12-9.05,12.69-12.96c5.01-4.29,10.64-7.85,16-11.74
	c3.47-2.52,8.83-1.47,9.29,2.11c1.23,9.59,7.11,9.99,14.08,8.17c6.36-1.66,12.45-4.36,18.62-6.71c3.72-1.42,3.16-4.62,2.04-7.15
	c-3.84-8.71-12.19-11.51-20.23-14.42c-3.69-1.34-7.8-1.53-11.47-2.9c-4.87-1.82-9.19-1.86-13.76,0.96c-2.43,1.5-5.55,2.8-8.3,2.7
	c-6.06-0.22-9.98,1.53-12.54,7.46c-2.65,6.15-6.63,7.24-12.96,5.38c-1.41-0.41-3.51-0.39-4.61,0.39
	c-7.03,5.01-13.67,10.57-20.84,15.35c-3.76,2.5-8.28,3.92-12.55,5.59c-8.43,3.31-16.92,6.47-25.41,9.64
	c-1.51,0.56-3.08,1.12-4.67,1.27c-6.76,0.61-12.82,2.21-17.61,7.79c-2.84,3.31-7.08,5.4-10.51,8.26c-1.95,1.63-4.42,3.43-5.14,5.64
	c-3.57,10.97-10.06,20.88-11.26,32.78c-0.27,2.68-3.7,5.83-6.46,7.3c-4.42,2.36-9.56,3.32-14.24,5.24c-2.16,0.89-3.8,3.1-5.98,3.91
	c-5.08,1.88-9.18,4.07-9.22,10.51c-0.01,2.12-1.25,4.57-2.65,6.28c-5.89,7.2-11.8,14.42-18.28,21.06c-1.67,1.71-5.53,2.1-8.22,1.77
	c-3.04-0.38-3.63-3.02-3.13-6.21c0.24-1.52-1.63-3.37-2.4-4.81c-8.69,3.83-17.07,7.18-25.15,11.15
	c-18.45,9.07-37.78,16.52-53.41,30.71c-3.25,2.95-4.4,5.73-3.19,8.78c1.23,3.09,3.67,6.21,8.4,5.05c1.38-0.34,3.46,0.82,4.79,1.84
	c4.84,3.72,6.1,3.33,9.86-1.27c1.58-1.92,4.7-2.79,7.29-3.47c0.42-0.11,1.86,3.2,2.64,5.02c1.24,2.88,2.08,5.96,3.57,8.69
	c0.54,0.99,2.44,1.59,3.77,1.67c0.72,0.04,2-1.25,2.22-2.14c0.88-3.53,1.97-7.14,2-10.73c0.06-6.62,3.19-11.11,8.05-15.16
	c6.59-5.49,13.44-1.78,16,4.52c4.08,10.05,4.03,10.13,14.57,7.13c6.86-1.95,13.41-3.9,20.37,0.59c3.83,2.46,8.52,1.85,12.69-1.06
	c1.51-1.05,3.92-1.21,5.89-1.13c3.96,0.17,8.18,1.89,11.8,0.98c7.86-1.97,15.83-4.37,22.98-8.09c9.7-5.05,19.06-10.98,27.86-17.5
	c8.55-6.33,18.17-8.45,28.21-9.85c1.12-0.16,2.63,0.47,3.56,1.23c3.21,2.63,6.64,5.14,9.27,8.3c6.54,7.86,14.27,8.79,23.3,5.27
	c9.87-3.84,18.74-2.88,27.36,4.21c12.84,10.55,12.2,11,26.85,0.45c9.31-6.71,19.8-8.91,30.63-10.62c6.29-1,11.25,2.97,16.78,4.38
	c9.98,2.54,20.58,2.82,30.96,3.48c8.8,0.56,16.69,6.96,19.15,15.49c0.81,2.81,3.27,5.75,5.79,7.35c9.12,5.79,18.05,1.41,26.43-2.1
	c5.08-2.13,9.91-5.73,13.78-9.72c7.29-7.52,15.65-6.41,23.89-3.64c6.14,2.07,11.42,6.75,17.59,8.64
	c7.79,2.39,13.39,6.76,18.03,13.14c2.94,4.03,4.81,7.64,2.24,12.82c-3.18,6.43-11.12,9.37-17.1,5.29c-3.04-2.07-4.71-0.7-6.87,1.25
	c-2.44,2.21-1.88,4.38,0.15,5.87c4.75,3.49,4.79,7.89,4.01,13.14c-1.31,8.81-8.68,17.26-17.3,18.57c-3.76,0.57-7.65,0.29-11.38,0.96
	c-10.58,1.9-21.58,1.17-31.54,6.88c-9.85,5.65-20.69,6.61-31.85,3.65c-9.39-2.49-10.98-1.62-13.1,7.83
	c-0.51,2.28,1.31,5.07,2.05,7.63c-449.28,0-898.55,0-1347.83,0c2.37-2.76,5-5.34,7.05-8.32c4.79-6.97,13.42-10.09,20.66-5.1
	c1.42,0.98,5.07,0.63,6.44-0.55c8.32-7.18,16.78-14.03,27.1-18.23c1.31-0.53,2.41-1.59,3.61-2.4c-11.99,3-21.82,9.48-30.41,17.79
	c-2.57,2.49-4.49,3.11-7.73,1.28c-7.15-4.05-12.77-3.11-18.53,2.91C264.29,1071.31,260.69,1075.65,256.97,1079.86z M1280.84,457.84
	c-6.93-4.14-8.88-4.22-15.68-3.16c-9.39,1.46-18.68,3.88-28.42,1.9c-5.78-1.18-11.84-1.58-17.75-1.45c-7.76,0.18-15.52,1-23.23,2
	c-5.34,0.7-10.64,1.93-15.81,3.44c-1.49,0.43-3.64,2.85-3.44,3.98c0.45,2.54,1.59,6.11,3.53,7.04c7.55,3.66,15.33,7.15,23.39,9.37
	c6.18,1.7,12.93,1.98,19.4,1.86c6.95-0.13,13.59-0.62,19.52,4.17c1.4,1.13,4.17,0.94,6.25,0.74c3.57-0.34,7.07-1.53,10.63-1.72
	c6.58-0.37,11.12-4.19,12.61-10.6c0.76-3.28,2.13-6.48,3.67-9.49C1276.91,463.16,1278.92,460.7,1280.84,457.84z M1048.02,482.33
	c-6.59-6.5-13.3-12.9-19.76-19.57c-3.54-3.66-7.83-4.61-12.29-3.5c-4.29,1.06-8.55,2.82-12.38,5.04c-3.41,1.97-6.45,4.77-4.74,9.71
	c1.47,4.27,2.61,8.65,4.02,13.4c-5.47,1.46-11.43,2.74-17.17,4.68c-4.15,1.41-8.34,3.23-11.89,5.74c-3.32,2.34-2.46,5.55,0.74,8.02
	c2.53,1.95,4.6,4.51,6.78,6.88c1.53,1.66,2.55,4.12,4.4,5.09c7.89,4.15,18.51,0.32,22-7.65c1.6-3.64,2.75-7.51,4.69-10.96
	c0.77-1.36,3.17-2.68,4.72-2.57c4.42,0.33,8.75,1.59,13.16,2.12c3.61,0.43,7.4,0.78,9.72-3.16
	C1042.52,491.35,1045.11,487.14,1048.02,482.33z M1312.43,449.65c0.64-6.47-4.91-9.02-7.81-12.98c-0.39-0.53-2.49-0.19-3.6,0.25
	c-9.88,3.91-11.26,13.18-12.99,21.83c-1.33,6.65-1.27,13.52-7.47,18.18c-1.62,1.22-2.94,3.33-3.55,5.3
	c-3.13,10.21-3.76,10.37,4.04,15.39c4.39,2.82,9.08,5.37,13.95,7.23c5.78,2.21,12.36-2,12.7-7.92c0.26-4.44-0.51-8.93-0.51-13.39
	c-0.01-8.07-3.28-16.32,2.15-24.11C1311.22,456.75,1311.45,452.94,1312.43,449.65z M1577.34,1059.75
	c0.11-12.08,0.81-23.83,0.11-35.5c-0.45-7.39-9.55-13.59-15.63-12.19c-7.91,1.83-15.74,10.35-17.14,18.14
	c-1.39,7.71,1.74,14.32,3.32,21.33c0.2,0.87,1.44,1.92,2.38,2.14C1558.89,1055.7,1567.44,1057.55,1577.34,1059.75z M641.5,947.38
	c1.06,1.68,1.21,2.21,1.56,2.43c0.99,0.61,2,1.29,3.09,1.61c10.29,2.96,18.4,8.82,24.67,17.54c1.74,2.42,4.46,4.78,7.21,5.65
	c3.7,1.16,7.88,0.79,11.83,1.18c5.01,0.5,9.36-0.71,13.65-3.53c2.43-1.59,6.01-2.58,8.85-2.19c16.61,2.24,16.59,2.41,26.17,16.69
	c1.11,1.66,2.09,3.44,3.41,4.92c3.51,3.94,6.99,7.94,10.82,11.56c8.91,8.41,18.23,16.4,26.97,24.98c4.26,4.18,8.32,7.94,14.62,8.5
	c8.67,0.76,16.21,4.49,23.4,9.2c2.14,1.4,4.88,2.79,7.29,2.7c8.94-0.34,18.02-0.48,26.75-2.2c16.27-3.21,32.36-7.37,48.48-11.33
	c7.55-1.86,15.64-2.95,22.36-6.52c15.11-8.01,29.32-17.68,44.26-26.03c13.51-7.55,27.64-9.42,41.47-0.48
	c10.93,7.07,22.89,5.78,34.65,4.23c4.63-0.61,8.89-3.99,13.32-6.11c-0.2-0.46-0.4-0.91-0.6-1.37c-1.23,0.35-2.53,0.54-3.67,1.06
	c-6.5,2.96-12.96,5.9-20.42,5.36c-7.02-0.51-14.14,0.03-20.52-4.1c-14.14-9.17-28.98-8.96-43.45-1.42
	c-13.66,7.13-26.72,15.41-40.12,23.06c-4.44,2.54-8.89,5.86-13.73,6.79c-26.02,5.02-51.2,14.21-77.83,16.08
	c-6.83,0.48-13.8,1.67-20.15-3.1c-6.16-4.63-13.29-7.58-21.1-8.12c-7.05-0.48-11.16-4.89-15.25-9.94
	c-3.11-3.85-6.78-7.36-10.62-10.49c-11.44-9.32-23.7-17.89-30.72-31.4c-4.33-8.34-10.68-12.4-19.99-13.91
	c-6.88-1.12-12.57-1.36-18.68,2.78c-7.95,5.4-23.17,2.27-28.86-5.59c-5.28-7.29-11.93-12.32-20.45-15.05
	C647.63,950.01,645.19,948.86,641.5,947.38z M1384.49,522.91c3.52-2.06,6.67-4.27,10.1-5.82c5-2.26,8.3-4.96,6.25-11.18
	c-2.06-6.24-2.12-13.86-5.89-18.62c-5.13-6.48-13.73-9-22.32-9.16c-1.38-0.03-3.99,1.77-3.99,2.72c0.03,7.37-1.19,15.43,1.39,21.92
	C1372.97,510.15,1379.44,516.15,1384.49,522.91z M640.3,974.55c-0.18-0.47-0.35-0.94-0.53-1.41c-1.9,1.06-4.04,1.84-5.66,3.23
	c-3.01,2.6-5.52,5.8-8.6,8.31c-3.99,3.24-3.32,7.98-0.95,10.13c4.83,4.39,4.74,9.93,5.98,15.27c1.48,6.41,5.08,8.1,10.38,3.82
	c4.02-3.25,6.78-8,10.44-11.76c7.45-7.65,9.35-15.91,4.82-25.94c-1.26-2.79-2.18-3.6-4.83-3.2
	C647.67,973.56,643.98,974.04,640.3,974.55z M1826.91,757.81c-11,3.87-29.47,15.96-38.76,24.05c-3.75,3.27-5.48,6.83-4.19,11.17
	c1.15,3.84,3.03,7.8,5.66,10.75c3,3.36,9.88,1.29,11.79-3.46c3-7.49,6.31-14.69,13.55-18.92
	C1823.92,776.18,1824.51,767.12,1826.91,757.81z M986.98,1030.99c0.1,4.74,9.47,9.16,13.86,6.43c4.5-2.8,8.64-6.27,13.36-8.58
	c4.39-2.14,7.14-5.32,8.79-9.59c0.6-1.56,0.84-4.73,0.23-5.02c-1.95-0.93-4.56-1.54-6.6-1.03c-6.52,1.64-12.86,4.02-19.36,5.76
	C992.91,1020.13,986.89,1026.78,986.98,1030.99z M1076.26,446.79c1.44,6.2,5.34,10.11,10.42,12.32c2.45,1.07,7.04,1.17,8.46-0.35
	c1.69-1.81,2.19-6.32,1.16-8.8C1093.7,443.75,1081.56,442.16,1076.26,446.79z M901.83,894.85c-5.76,6.71-5.77,6.72-0.22,12.25
	c1.65,1.65,3.1,3.71,5.09,4.72c1.2,0.61,3.25-0.46,4.92-0.78c-0.62-3.25-0.48-6.96-2.08-9.64
	C907.96,898.74,904.64,897.13,901.83,894.85z M752.78,215.35c-3.23,5.03-4.27,12.1-1.65,14.45c1.2,1.07,4.2,1.9,5.09,1.2
	c2.24-1.77,5.17-4.42,5.25-6.8C761.66,218,759.57,216.46,752.78,215.35z M933.98,894.07c-6,4.1-11.93,7.86-10.29,17.22
	c3.58-2.98,6.74-5.75,10.04-8.34C937.85,899.71,937.95,898.65,933.98,894.07z M794.05,177.27c-1.02,1.69-3.13,4.05-2.71,4.67
	c1.56,2.28,3.8,5.19,6.11,5.5c1.79,0.24,5.76-2.99,5.8-4.75C803.38,177.32,797.99,179.38,794.05,177.27z M414.95,0
	c-0.38,5.94,0.33,12.23-1.39,17.75c-2.47,7.91-2.24,8.14,5.16,13.09c6.14,4.1,6.52,7.28,1.16,12.8
	c-5.1,5.25-10.35,10.36-15.59,15.47c-0.88,0.86-2.06,1.4-3.21,2.17c-2.56-3.25-4.83-6.13-7.44-9.44c-2.15,4.28-3.73,7.97-5.79,11.35
	c-1.93,3.16-1.72,5.44,0.73,8.37c5.87,7.02,14.36,9.62,22.24,5.39c6.98-3.75,13.46-8.43,20.27-12.53
	c9.3-5.59,17.38-13.18,28.54-15.79c4.35-1.02,9.73-2.91,10.77-9.08c0.21-1.26,1.73-2.4,2.84-3.38c8.54-7.56,13.13-17.84,18.8-27.36
	c1.72-2.9,2.07-5.89-0.08-8.81C466.28,0,440.61,0,414.95,0z M303.96,0c-2.51,6.05-6.61,11.95-7.18,18.17
	c-1.14,12.36-6.05,22.85-11.93,33.31c-2.93,5.21-3.05,11.16-2.63,16.65c5.78-1.61,10.93-3.35,16.21-4.4
	c4.19-0.84,7.37-2.26,9.07-6.53c2-5.02,5.8-5.84,10.96-4.7c10.26,2.27,19.89-2.55,25.19-12.04c-4.02-4.9-8.49-9.52-8.17-16.83
	c0.2-4.53,5.49-12.12,9.64-12.7c7.52-1.06,15.05-2.21,22.49-3.75c7.12-1.47,10.18,0.65,10.3,8.07c0.11,6.49-0.23,13,0.15,19.46
	c0.12,2.08,1.94,4.06,2.98,6.09c2.27-1.36,5.99-2.27,6.56-4.15c3.64-12,9.34-23.6,8.34-36.65C365.29,0,334.62,0,303.96,0z
	 M620.61,52.86c-3.85-6.23-3.31-12-1.12-18.36c1.3-3.76,2.05-7.47,7.38-6.7c0.81,0.12,2.13-0.9,2.62-1.73c0.35-0.59,0-2.1-0.56-2.62
	c-3.38-3.14-9.76-1.31-11.34,3.11c-1.06,2.97-2.49,5.85-3.23,8.89c-1.16,4.78-4.4,7.23-8.64,8.8c-2.18,0.81-4.36,1.75-6.62,2.19
	c-5.2,0.99-6.69,4.44-7.15,9.2c-0.6,6.29-2.46,12.17-6.23,17.48c-1.87,2.63-2.8,5.99-3.84,9.12c-0.34,1.01-0.09,2.8,0.61,3.41
	c0.69,0.61,2.58,0.68,3.44,0.16c3.79-2.31,8.02-4.35,10.95-7.54c7.09-7.72,10.26-6.94,20.29-3.65
	C621.77,70.66,624.23,58.73,620.61,52.86z M1187.79,754.03c-3.4,4.02-6.42,8.46-10.28,11.97c-11.48,10.43-26.43,14.23-40.22,20.19
	c-4.87,2.1-6.27,4.48-4.96,9.62c0.94,3.68,2.32,7.41,2.37,11.14c0.11,7.85,5.09,12.13,10.89,15.44c2.96,1.69,7.19,2.49,8.86-2.68
	c1.03-3.19,3.34-4.51,6.62-5.16c6.48-1.29,12.92-2.86,19.25-4.76c1.76-0.53,4.03-2.45,4.3-4.03c0.35-2.04-1.09-4.38-1.75-6.59
	c-2.36,0.78-4.75,1.48-7.06,2.39c-0.71,0.28-1.17,1.16-1.8,1.69c-4.94,4.17-9.04,2.96-10.58-3.12c-0.4-1.56-0.66-3.16-1.06-5.17
	c5.3-1.05,10.38-1.79,15.29-3.15c1.92-0.53,4.25-2.09,5.03-3.8c5.34-11.82,11.01-23.65,8.32-37.74
	C1189.85,751.6,1188.82,752.81,1187.79,754.03z M1224.2,728.53c-4.72,2.71-9.32,5.86-13.32,9.54c-4.64,4.27-8.4,9.48-7.92,16.33
	c0.3,4.28,1.19,8.51,1.76,12.77c0.53,3.99,2.67,4.34,6.06,2.81c-0.25-1.02-0.36-1.83-0.65-2.58c-3.46-8.99-1.12-15.06,7.43-20.42
	c6.92-4.34,14.03-9.78,15.94-20.63C1230,727.11,1226.69,727.1,1224.2,728.53z"/>
<path id="terrain--water" fill="transparent" d="M794.05,177.27c3.94,2.1,9.32,0.04,9.2,5.41c-0.04,1.76-4,4.99-5.8,4.75
	c-2.3-0.31-4.54-3.22-6.11-5.5C790.92,181.32,793.03,178.96,794.05,177.27z M491.94,0c2.15,2.92,1.8,5.91,0.08,8.81
	c-5.67,9.52-10.25,19.8-18.8,27.36c-1.11,0.98-2.62,2.12-2.84,3.38c-1.04,6.18-6.42,8.07-10.77,9.08
	c-11.17,2.61-19.24,10.2-28.54,15.79c-6.81,4.09-13.28,8.78-20.27,12.53c-7.88,4.23-16.38,1.63-22.24-5.39
	c-2.45-2.93-2.65-5.21-0.73-8.37c2.07-3.38,3.64-7.07,5.79-11.35c2.61,3.31,4.88,6.19,7.44,9.44c1.16-0.77,2.34-1.31,3.21-2.17
	c5.24-5.11,10.5-10.21,15.59-15.47c5.36-5.52,4.98-8.7-1.16-12.8c-7.4-4.95-7.63-5.18-5.16-13.09c1.73-5.52,1.02-11.8,1.39-17.75
	c-6.33,0-12.67,0-19,0c1,13.06-4.69,24.66-8.34,36.65c-0.57,1.87-4.29,2.79-6.56,4.15c-1.04-2.03-2.85-4.01-2.98-6.09
	c-0.39-6.47-0.04-12.98-0.15-19.46c-0.12-7.42-3.18-9.54-10.3-8.07c-7.44,1.53-14.97,2.69-22.49,3.75
	c-4.15,0.58-9.44,8.17-9.64,12.7c-0.32,7.31,4.14,11.93,8.17,16.83c-5.3,9.5-14.94,14.31-25.19,12.04
	c-5.16-1.14-8.97-0.31-10.96,4.7c-1.7,4.28-4.88,5.69-9.07,6.53c-5.28,1.06-10.43,2.8-16.21,4.4c-0.41-5.49-0.29-11.44,2.63-16.65
	c5.88-10.47,10.79-20.95,11.93-33.31c0.57-6.22,4.67-12.12,7.18-18.17C221.97,0,139.98,0,57.99,0c-4.84,8.79-1.77,17.71-0.7,26.67
	c0.39,3.3,0.55,7.38-1.02,10.01c-2.52,4.2-1.54,7.02,1.22,10.04c1.67,1.83,3.35,3.71,5.31,5.19c0.77,0.58,2.44,0.5,3.48,0.13
	c3.8-1.37,6.61,0.17,7.76,4c0.88,2.92,2.13,5.79,3.64,8.44c4.12,7.24,9.39,13.96,9.66,23.61c2.73,0,5.3,0.32,7.77-0.06
	c5.83-0.9,10.53,1.5,10.55,7.46c0.03,6.71,2.32,11.38,7.41,15.19c0.43,0.32,0.52,1.12,0.76,1.69c-0.52-0.18-1.04-0.36-1.55-0.53
	c-2.7,5.4-5.61,10.72-7.98,16.26c-0.68,1.59-0.43,4.24,0.48,5.74c2.43,3.97-0.02,4.53-2.93,5.18c-1.77,0.39-4,0.38-5.15,1.47
	c-1.28,1.21-2.65,3.96-2.09,5.16c1.58,3.4,3.75,6.75,6.46,9.28c1.16,1.08,4.26,0.05,6.48,0.05c0.99,0,1.97,0.23,2.96,0.29
	c4.04,0.26,8.1,0.35,12.11,0.83c1.67,0.2,3.26,1.16,4.85,1.87c2.79,1.26,5.54,3.66,8.31,3.66c5.15,0,8.81,1.97,11.68,5.19
	c-0.95,5.97-1.85,11.64-3.01,18.92c3.34-1.81,5.16-3.41,7.19-3.73c2.36-0.37,4.89,0.39,7.34,0.66c-0.37,2.25-0.32,4.69-1.24,6.69
	c-0.85,1.84-3.05,3.01-4.11,4.8c-1.62,2.73,0.07,6.58,2.89,7.39c3.18,0.91,9.79-2.13,11.36-4.98c4.1,0.8,8.07,1.71,12.08,2.29
	c1.19,0.17,2.51-0.55,3.78-0.86c-0.95-1.18-1.75-2.56-2.9-3.49c-2.13-1.72-4.48-3.18-6.73-4.75c0.22-0.56,0.44-1.12,0.65-1.69
	c6.72-0.37,13.43-0.87,20.15-1.07c5-0.15,6.45,2.05,4.6,6.77c-0.53,1.35-1.63,2.48-2.45,3.72c-2.12,3.19-0.95,6.15,2.46,7.5
	c1.85,0.73,3.31,2.43,4.94,3.7c1.41,1.1,2.73,2.33,4.25,3.26c1.91,1.17,3.98,2.08,6.73,3.49c-1.76,1.46-2.91,2.29-3.91,3.27
	c-1.2,1.17-3.25,2.53-3.17,3.7c0.11,1.72,1.39,3.98,2.86,4.86c2.31,1.38,5.16,1.93,7.84,2.62c5.39,1.39,11.68,1.36,16,4.28
	c5.89,3.98,10.56,9.93,15.24,15.47c8.2,9.69,18.07,17.43,29.33,22.71c8.75,4.1,18.57,6.05,28.05,8.42
	c3.15,0.78,6.78,0.23,10.09-0.32c7.98-1.32,15.87-3.21,23.87-4.45c5.07-0.79,8.56,1.83,10.03,6.73c1.42,4.71,3.4,8.86,6.76,12.71
	c4.74,5.44,4.41,5.53,10.79,1.17c2.48-1.7,5.22-5.71,9.16-2.54c2.83,2.28,5.57,4.79,7.84,7.61c2.81,3.49,5.9,1.41,8.54,0.57
	c1.42-0.45,2.73-3,3.07-4.8c1.58-8.25,2.42-16.65,4.26-24.84c1.58-7.04,6.76-11.22,13.53-13.37c6.89-2.19,13.91-4.03,20.68-6.54
	c8.33-3.08,15.67-0.54,19.18,7.2c3.43,7.58,17.48,10.76,23.71,5.17c3.15-2.83,5.78-2.88,8.54,0.21c1.21,1.36,2.06,3.28,3.55,4.09
	c3.18,1.73,7.15,4.72,9.95,3.98c10.78-2.84,15.14-12.19,10.86-22.58c-1.33-3.23-4.52-5.92-7.38-8.23c-2.45-1.98-4.5-3.98-2.76-6.88
	c1.76-2.93,4.19-5.68,6.92-7.71c1.18-0.88,3.96-0.04,5.77,0.67c0.5,0.2,0.55,2.86,0.06,4.09c-2.46,6.15-0.95,11.12,4.12,12.66
	c8.94,2.73,22.51-5.01,25.12-13.95c0.89-3.04,2.73-5.89,4.56-8.53c7.94-11.49,15.59-22.93,17.63-37.36
	c1.67-11.82,6.82-21.42,20.04-24.38c2.53-0.57,5.13-3.1,6.66-5.4c3.11-4.68,5.56-9.8,8.21-14.78c5.18-9.76,12.72-17.48,21.64-23.67
	c7.45-5.17,15.68-8.43,21.02-17.08c7.93-12.84,18.13-24.28,27.23-36.41c5.01-6.69,9.49-7.14,15.3-0.65
	c1.64-1.86,3.48-3.52,4.76-5.52c2.99-4.68,7.11-5.81,12.05-4.07c4.52,1.59,8.79,4.05,13.4,5.2c2.7,0.68,5.97-0.11,8.74-0.99
	c0.79-0.25,0.75-3.12,1.24-5.47c1.38-1.09,3.33-2.92,5.56-4.34c6.29-3.99,6.43-8.92,0.34-12.94c-0.96-0.63-2.12-2.02-2.01-2.91
	c0.13-1.04,1.43-2.46,2.45-2.7c0.96-0.22,2.47,0.65,3.31,1.48c1.58,1.57,2.84,3.45,4.54,5.59c8.05-7.58,15.82-14.4,17.93-25.22
	c0.72-3.71,0.92-7.51,1.36-11.27C670.58,0,581.26,0,491.94,0z M596.88,78.27c-2.93,3.19-7.16,5.23-10.95,7.54
	c-0.86,0.52-2.75,0.45-3.44-0.16c-0.7-0.62-0.95-2.4-0.61-3.41c1.05-3.13,1.97-6.49,3.84-9.12c3.77-5.32,5.63-11.19,6.23-17.48
	c0.45-4.76,1.94-8.21,7.15-9.2c2.26-0.43,4.44-1.38,6.62-2.19c4.24-1.57,7.48-4.03,8.64-8.8c0.74-3.05,2.17-5.92,3.23-8.89
	c1.58-4.42,7.96-6.25,11.34-3.11c0.57,0.53,0.91,2.04,0.56,2.62c-0.49,0.84-1.81,1.85-2.62,1.73c-5.33-0.76-6.08,2.94-7.38,6.7
	c-2.2,6.36-2.74,12.13,1.12,18.36c3.63,5.87,1.17,17.8-3.43,21.76C607.15,71.33,603.97,70.55,596.88,78.27z M1919.76,1079.86
	c0-76.66,0-153.31,0-229.97c-3.36,1.81-6.64,3.78-10.08,5.4c-15.66,7.37-30.26,17.87-48.84,16.69c-0.33-0.02-0.69,0.18-0.99,0.1
	c-3.12-0.94-7.17-1.02-9.16-3.07c-4.91-5.08-12.27-8.1-14.19-15.88c-0.21-0.85-1.22-1.53-1.92-2.23c-3.85-3.87-4.15-8.74,0.02-12.13
	c3.74-3.04,5.43-6.89,7.62-10.94c2.02-3.74,7.51-5.59,11.42-8.34c0.8-0.56,1.51-1.34,2.08-2.15c2.88-4.11,0.81-8.76-4.11-9.47
	c-1.63-0.23-3.52-0.31-4.79-1.18c-4.92-3.38-8.34-0.63-10.13,3.23c-2.58,5.59-5.08,9.36-11.7,5.39c-0.32-0.2-1.01,0.01-1.44,0.21
	c-6.34,3.06-14.46,1.98-19.34,8.49c-2,2.66-4.2,2.06-6.21-0.27c-5.63-6.53-13.58-8.52-21.36-10.85c-8.65-2.6-18.29-0.94-26.34-6.46
	c-2.54-1.74-4.98-0.02-6.59,2.63c-3.98,6.55-8.22,12.81-14.75,17.3c-3.14,2.16-5.98,2.02-7.85-0.58c-1.05-1.46-0.72-4.64,0.11-6.55
	c1.17-2.67,3.76-4.71,5.03-7.36c0.99-2.08,2-5.29,1.08-6.94c-2.79-5.03-7.22-8.92-13.09-9.82c-5.88-0.9-11.91-1.1-17.88-1.16
	c-12.66-0.14-25.32-0.03-37.99,0.07c-1.79,0.01-3.75,0.15-5.33,0.88c-12.91,5.95-24.42,13.41-30.9,26.93
	c-3.2,6.68-1.79,9.98,5.44,10.03c9.43,0.06,18.87,0.12,28.3-0.08c4.45-0.09,8.92-0.42,12.21-4.38c0.7-0.85,2.96-0.95,4.3-0.61
	c4.71,1.19,9.34,2.73,14,4.13c0.63,0.19,1.36,0.23,1.86,0.59c1.4,0.99,0.69,13.5-0.75,14.56c-0.85,0.62-1.66,1.31-2.87,2.27
	c2.65,1.67,4.81,3.03,8.39,5.29c-3.45,1.4-5.66,2.84-8.01,3.11c-2.91,0.34-5.95-0.17-8.9-0.53c-4.93-0.59-9.72-0.41-13.79,2.79
	c-4.17,3.29-8.41,6.55-12.16,10.29c-3.09,3.08-5.15,2.23-7.95-0.26c-4.95-4.41-9.96-9.05-17.62-6.2c-1.08,0.4-2.58-0.47-3.88-0.43
	c-1.56,0.05-3.39,0.01-4.61,0.78c-5.21,3.3-9.32,5.58-15.2-0.36c-3.34-3.38-10.39-4.89-15.1-5.26c-8.52-0.67-13.55-4.76-16.99-11.02
	c-4.59-8.37-13.05-9.54-20.2-10.21c-9.98-0.93-20.3,0.56-29.44,6.66c-3.38,2.25-8.48,2.38-12.83,2.49
	c-1.76,0.04-3.65-2.48-5.38-3.94c-2.93-2.47-5.44-1.76-8.05,0.99c-3.69,3.9-7.9,7.35-12.16,10.65c-0.94,0.73-3,0.01-4.55-0.04
	c0.46-1.46,0.51-3.29,1.44-4.33c5.19-5.8,10.56-11.43,15.92-17.07c4.17-4.39,8.12-9.05,12.69-12.96c5.01-4.29,10.64-7.85,16-11.74
	c3.47-2.52,8.83-1.47,9.29,2.11c1.23,9.59,7.11,9.99,14.08,8.17c6.36-1.66,12.45-4.36,18.62-6.71c3.72-1.42,3.16-4.62,2.04-7.15
	c-3.84-8.71-12.19-11.51-20.23-14.42c-3.69-1.34-7.8-1.53-11.47-2.9c-4.87-1.82-9.19-1.86-13.76,0.96c-2.43,1.5-5.55,2.8-8.3,2.7
	c-6.06-0.22-9.98,1.53-12.54,7.46c-2.65,6.15-6.63,7.24-12.96,5.38c-1.41-0.41-3.51-0.39-4.61,0.39
	c-7.03,5.01-13.67,10.57-20.84,15.35c-3.76,2.5-8.28,3.92-12.55,5.59c-8.43,3.31-16.92,6.47-25.41,9.64
	c-1.51,0.56-3.08,1.12-4.67,1.27c-6.76,0.61-12.82,2.21-17.61,7.79c-2.84,3.31-7.08,5.4-10.51,8.26c-1.95,1.63-4.42,3.43-5.14,5.64
	c-3.57,10.97-10.06,20.88-11.26,32.78c-0.27,2.68-3.7,5.83-6.46,7.3c-4.42,2.36-9.56,3.32-14.24,5.24c-2.16,0.89-3.8,3.1-5.98,3.91
	c-5.08,1.88-9.18,4.07-9.22,10.51c-0.01,2.12-1.25,4.57-2.65,6.28c-5.89,7.2-11.8,14.42-18.28,21.06c-1.67,1.71-5.53,2.1-8.22,1.77
	c-3.04-0.38-3.63-3.02-3.13-6.21c0.24-1.52-1.63-3.37-2.4-4.81c-8.69,3.83-17.07,7.18-25.15,11.15
	c-18.45,9.07-37.78,16.52-53.41,30.71c-3.25,2.95-4.4,5.73-3.19,8.78c1.23,3.09,3.67,6.21,8.4,5.05c1.38-0.34,3.46,0.82,4.79,1.84
	c4.84,3.72,6.1,3.33,9.86-1.27c1.58-1.92,4.7-2.79,7.29-3.47c0.42-0.11,1.86,3.2,2.64,5.02c1.24,2.88,2.08,5.96,3.57,8.69
	c0.54,0.99,2.44,1.59,3.77,1.67c0.72,0.04,2-1.25,2.22-2.14c0.88-3.53,1.97-7.14,2-10.73c0.06-6.62,3.19-11.11,8.05-15.16
	c6.59-5.49,13.44-1.78,16,4.52c4.08,10.05,4.03,10.13,14.57,7.13c6.86-1.95,13.41-3.9,20.37,0.59c3.83,2.46,8.52,1.85,12.69-1.06
	c1.51-1.05,3.92-1.21,5.89-1.13c3.96,0.17,8.18,1.89,11.8,0.98c7.86-1.97,15.83-4.37,22.98-8.09c9.7-5.05,19.06-10.98,27.86-17.5
	c8.55-6.33,18.17-8.45,28.21-9.85c1.12-0.16,2.63,0.47,3.56,1.23c3.21,2.63,6.64,5.14,9.27,8.3c6.54,7.86,14.27,8.79,23.3,5.27
	c9.87-3.84,18.74-2.88,27.36,4.21c12.84,10.55,12.2,11,26.85,0.45c9.31-6.71,19.8-8.91,30.63-10.62c6.29-1,11.25,2.97,16.78,4.38
	c9.98,2.54,20.58,2.82,30.96,3.48c8.8,0.56,16.69,6.96,19.15,15.49c0.81,2.81,3.27,5.75,5.79,7.35c9.12,5.79,18.05,1.41,26.43-2.1
	c5.08-2.13,9.91-5.73,13.78-9.72c7.29-7.52,15.65-6.41,23.89-3.64c6.14,2.07,11.42,6.75,17.59,8.64
	c7.79,2.39,13.39,6.76,18.03,13.14c2.94,4.03,4.81,7.64,2.24,12.82c-3.18,6.43-11.12,9.37-17.1,5.29c-3.04-2.07-4.71-0.7-6.87,1.25
	c-2.44,2.21-1.88,4.38,0.15,5.87c4.75,3.49,4.79,7.89,4.01,13.14c-1.31,8.81-8.68,17.26-17.3,18.57c-3.76,0.57-7.65,0.29-11.38,0.96
	c-10.58,1.9-21.58,1.17-31.54,6.88c-9.85,5.65-20.69,6.61-31.85,3.65c-9.39-2.49-10.98-1.62-13.1,7.83
	c-0.51,2.28,1.31,5.07,2.05,7.63C1711.79,1079.86,1815.77,1079.86,1919.76,1079.86z M1919.76,366.95
	c-5.41-2.7-10.91-5.25-16.21-8.16c-2.94-1.61-5.4-4.1-8.35-5.7c-3.66-1.98-7.53-4.65-11.45-4.9c-9.03-0.58-15.42,4.49-20.55,11.75
	c-3.42,4.84-7.13,9.82-11.76,13.38c-7.2,5.53-15.19,10.08-23.07,14.66c-2.27,1.32-5.39,2-8,1.76c-4.73-0.43-9.37-1.79-14.05-2.74
	c-4.2-0.86-5.97-3.61-5.09-7.99c1.53-7.66-3.19-13.64-10.66-11.77c-6.96,1.75-9.59-2.12-12.79-6.3c-0.91-1.19-1.49-2.65-2.51-3.71
	c-3.99-4.16-7.01-9.94-14.47-8.3c-10.8,2.36-21.64,4.52-32.48,6.71c-2.74,0.55-5.55,1.35-8.3,1.23c-3.91-0.17-6.72,0.72-8.27,4.6
	c-0.54,1.35-1.72,2.43-2.56,3.66c-4.09,5.98-7.45,12.38-7.23,19.76c0.17,5.56-2.5,9.28-5.73,13.26c-5.25,6.47-10.03,13.32-15.01,20
	c-0.99,1.32-1.8,2.9-3.08,3.85c-2.99,2.21-6.48,3.8-9.28,6.21c-6.87,5.9-13.33,12.26-20.2,18.16c-5.03,4.32-10.59,7.93-11.47,15.47
	c-0.21,1.79-2.41,3.88-4.22,4.84c-8.46,4.52-17.1,8.7-25.68,12.98c-7.34,3.66-14.62,5.76-22.78,1.82
	c-6.86-3.31-14.17-5.67-21.26-8.52c-7.15-2.88-13.81-1.23-20.64,1.5c-6.43,2.57-13.22,4.2-19.72,6.61
	c-3.32,1.24-6.62,2.93-9.41,5.09c-2.58,1.99-4.16,5.26-6.73,7.26c-4.83,3.77-8.88,8.55-15.77,9.48
	c-11.11,1.5-20.71-8.94-17.41-19.69c0.63-2.07,1.84-4.1,1.89-6.17c0.05-2.11-0.3-5.3-1.67-6.18c-5.68-3.67-11.65-7.05-17.84-9.77
	c-4.83-2.13-9.38,0.41-12.04,5.77c-1.8,3.62-3.28,7.15-8.4,7.21c-6.27,0.08-12.17,8.61-10.11,14.57c0.74,2.12,2.6,5.12,4.34,5.41
	c6.44,1.08,13.12,2.43,19.4-1.06c2.16-1.2,9.61,0.13,10.08,2.3c0.77,3.55,1.33,7.57,0.39,10.94c-0.85,3.01-9.49,5.95-11.87,4.35
	c-3.43-2.31-6.24-1.04-9.37,0.06c-3.45,1.21-7,2.16-10.4,3.48c-1.46,0.57-3.21,1.47-3.93,2.73c-4.84,8.57-9.53,17.22-14.03,25.97
	c-0.65,1.26-0.67,3.64,0.1,4.7c2.33,3.16,1.18,5.85-0.19,8.76c-1.13,2.4-2.53,4.81-2.95,7.36c-0.32,1.89,0.12,4.52,1.29,5.95
	c6.05,7.46,12.53,14.56,18.62,21.99c1.05,1.29,1.7,3.82,1.19,5.32c-4.74,13.84-11.23,26.84-19.18,39.16
	c-2.66,4.12-6.43,8.52-2.26,14.02c0.3,0.4-0.12,1.71-0.59,2.28c-4.06,4.99-7.67,10.65-14.4,12.4
	c-21.71,5.63-42.79,13.72-65.25,16.99c4.43,4.41,8.84,8.81,13.31,13.26c-3.1,4.89-5.87,1.43-8.02-0.03
	c-4.28-2.92-8.22-5.27-13.76-3.07c-8.62,3.42-17.36,6.59-26.21,9.38c-4.35,1.37-9.07,2.45-13.58,2.31
	c-13.85-0.45-27.55-2.04-40.44,5.7c-14.77,8.87-30.06,16.88-45.15,25.2c-4.37,2.41-7.93,5.27-8.71,10.68
	c-0.19,1.3-1.43,2.57-2.44,3.62c-3.71,3.83-7.86,7.28-11.22,11.39c-9.36,11.41-21.61,15.34-35.79,14.67
	c-13.09-0.62-26.19-1.04-39.24-2.15c-6.86-0.58-14.1-1.31-20.27-4.01c-6.7-2.93-12.44-2.28-18.49,0.31
	c-1.98,0.85-3.9,2.23-5.34,3.83c-3.26,3.61-6.19,7.51-9.25,11.28c-7.25-6.8-15.49-4.31-22.87-4.41c-6.82-0.09-13.65,2.41-20.53,3.41
	c-1.49,0.22-3.78-0.69-4.72-1.86c-3.18-3.95-5.96-7.91-12.09-5.46c-1.35,0.54-3.24-0.33-4.88-0.47
	c-10.46-0.83-11.43-2.68-4.51-11.44c1.09-1.38,1.68-5.1,0.98-5.58c-1.74-1.22-4.75-2.21-6.52-1.5c-4.23,1.72-7.91,4.73-12.05,6.72
	c-2.35,1.13-5.16,1.36-7.8,1.82c-1.86,0.32-4.7-0.4-5.48,0.6c-2.52,3.23-5.59,6.87-6.08,10.66c-1.37,10.65-1.83,21.45-2.09,32.2
	c-0.15,6.09-3.23,9.08-8.92,7.25c-2.37-0.76-4.71-1.62-7.02-2.55c-4.41-1.77-6.86,0-8.36,4.19c-3.02,8.41-1.07,15.55,5.94,21.06
	c0.52,0.41,1.29,0.68,1.55,1.2c2.96,6.04,8.52,8.02,14.41,7.65c5.54-0.34,11.01-2.22,16.41-3.78c1.12-0.32,2.45-2.19,2.54-3.43
	c0.65-9.03,1.22-18.07,1.38-27.12c0.07-4.09,3.04-8.17,5.99-6.72c3.5,1.73,5.18,0.68,7.29-2.31c6.51-9.18,17.46-8.9,23.75,0.28
	c1.03,1.5,2.49,2.76,3.27,4.37c1.38,2.86,3.27,5.86,3.39,8.86c0.42,10.56,0.18,21.15,0.19,31.73c0.01,6.97,6.23,12.99,13.13,13.41
	c6.19,0.38,10.18-3.15,13.28-7.36c3.2-4.35,6.97-6.72,12.14-7.76c5.08-1.02,9.25-10.85,7.06-15.6c-2.36-5.13-4.53-10.34-6.89-15.47
	c-1.17-2.55-2.58-4.99-4.11-7.91c1.49-1.6,3.44-3.68,5.5-5.87c1.17,4.96,1.77,9.52,3.37,13.7c1.73,4.52,4.87,4.49,12.45,0.08
	c0.7,3.03,2.49,6.13,1.79,8.49c-3.43,11.47-0.8,22.73,0.48,34.01c0.3,2.69,2.52,5.16,4.15,8.3c1.21-1.54,1.63-1.88,1.79-2.31
	c0.34-0.92,0.65-1.88,0.78-2.85c1.35-10.49,2.98-20.96,3.86-31.49c0.66-7.91,1.72-15.71-7.7-21.02c-3.84-2.16-5.71-9.19-6.87-14.36
	c-1.24-5.49,6.39-11.72,13.87-12.63c9.59-1.16,19.08-1.35,28.62,0.91c10.85,2.56,22.29,2.96,30.91,11.77
	c4.15,4.24,6.51,9.96,4.51,16.36c-9.41-4.45-18.97-8.26-28.81,0.4c0.18-3.34,0.74-6.24,1.9-8.87c2.31-5.24-0.98-8.87-3.89-11.96
	c-1.51-1.6-5.09-1.26-7.73-1.79c0.18,2.15,0.7,2.97,1.36,3.66c6.15,6.53,6.09,6.82,2.44,14.76c-1.93,4.2-3.72,8.53-4.9,12.98
	c-1.25,4.73-1.32,9.35,3.16,13.13c4.74,4.01,9.6,7.02,16.21,5.96c-6.79,1.49-13.47,2.56-20.13,3.72
	c-15.92,2.77-22.98,9.82-25.75,25.36c-0.86,4.81-1.21,10.01-3.39,14.22c-3.4,6.58-8.45,12.29-12.25,18.69
	c-4.64,7.81-12.05,13.91-13.12,23.97c-1.04,9.77-0.07,18.21,7.68,25.23c6.66,6.03,12.56,12.91,19.22,18.94
	c5.04,4.56,5.5,9.98,4.52,15.92c-0.53,3.18-1.57,6.28-2.65,10.47c1.83-1.69,3.3-2.58,4.11-3.88c3.44-5.54,1.91-17.22-2.76-21.97
	c-4.79-4.87-9.74-9.59-14.44-14.55c-3.76-3.97-8.17-7.71-10.66-12.42c-5.01-9.47-3.67-19.32,1.84-28.25
	c5.23-8.48,11.02-16.62,16.81-24.72c3.27-4.57,5.33-9.39,6.13-14.98c0.73-5.08,1.98-10.11,3.4-15.05c0.66-2.3,1.75-5.42,3.55-6.28
	c6.96-3.36,14.14-6.45,21.53-8.71c7.1-2.17,14.52-3.4,21.87-4.63c3.99-0.67,8.12-0.57,12.19-0.64c4.19-0.06,8.96,2.01,12.11-2.17
	c4.28-5.7,9.8-7.45,16.55-6.61c5.11,0.64,8.74-0.95,10.02-6.49c0.43-1.87,1.67-3.54,2.58-5.38c1,0.09,1.85,0.05,2.62,0.26
	c7.4,2.03,14.49,2.92,21.43-2.05c1.55-1.11,5.21-0.02,7.57,0.89c5.67,2.18,11.11,4.93,16.72,7.27c0.93,0.39,2.54,0.29,3.31-0.29
	c5.72-4.31,11.99-8.18,16.69-13.44c3.38-3.78,4.53-9.53,6.8-14.34c4.21-8.93,7.72-18.45,18.55-21.87c1.33-0.42,2.94-1.99,3.24-3.3
	c1.61-6.92,3.35-13.88,4.07-20.93c0.96-9.42,7.21-17.36,16.82-18.32c10.11-1.02,19.52-3.89,28.36-8.6c4.32-2.3,8.86-4.86,12.1-8.4
	c6.17-6.74,13.01-11.66,22.25-12.61c5.7-0.58,11.61-2.05,17.08-1.09c6.14,1.08,11.66,1.67,17.13-1.64c2.06-1.25,4.87-2.03,6.05-3.85
	c3.32-5.13,6.43-10.51,8.78-16.14c3.14-7.56,8.47-11.89,16.16-14.16c2.49-0.73,5.13-2.54,6.69-4.62
	c7.49-9.95,14.48-20.29,21.96-30.24c3.84-5.11,7.55-10.92,12.72-14.26c7.71-4.98,16.4-8.76,25.12-11.75
	c9.9-3.4,20.23-4.9,30.91-2.81c6.63,1.29,13.53,2.32,20.21,1.9c10.02-0.63,15.08,1.28,20.08,10.01
	c7.04,12.28,15.21,15.59,28.63,10.64c6.83-2.52,13.67-2.62,20.64-2.27c5.55,0.28,6.11,1.66,5.91,7.13
	c-0.23,6.42,2.15,12.97,7.27,16.09c3.55,2.16,9.59,1.01,14.32,0.21c3.63-0.62,5.45-6.51,3.58-9.24
	c-5.22-7.61-10.46-15.22-15.75-22.79c-1.86-2.66-0.93-3.96,1.72-5.36c2.3-1.22,4.69-2.93,6.12-5.04c4.32-6.4,10.15-10.3,17.58-11.93
	c4.95-1.09,9.9-2.54,14.92-2.94c8.09-0.64,11.5-6.43,15.32-12.17c0.56-0.84,3.02-1.52,3.67-1.03c5.72,4.3,11.52,4.1,17.09,0.24
	c5.63-3.9,6.89-9.61,5.84-16.23c-0.33-2.1,0.2-4.74,1.28-6.58c2.02-3.45,4.73-6.49,7.16-9.7c1.9-2.51,4.1-6.25,7.32-4.09
	c1.74,1.17,1.27,5.64,1.78,8.63c0.02,0.14-0.08,0.32-0.16,0.47c-3.67,7.08-0.85,13.12,2.91,19.11c2.93,4.67,7.42,4.97,11.88,3.94
	c4.12-0.95,6.35-4.62,6.43-8.6c0.16-7.89,0.16-15.84-0.7-23.67c-1.11-10.16-3.13-20.18,4.89-28.75c2.02-2.17,3.39-4.93,5.25-7.26
	c3.84-4.83,8.35-8.81,15.01-8.5c4.03,0.19,8.07,0.82,12.03,1.62c6.07,1.24,12.83-4.87,12.14-10.84c-0.24-2.05,0.83-4.24,1.31-6.37
	c2.03,0.57,4.32,0.73,6.04,1.8c4.2,2.62,8.62,1.31,9.94-3.77c-3.77-0.51-3.51-2.75-3.32-6.1c0.23-4.1-0.69-8.65-2.44-12.38
	c-3.38-7.21-1.37-11.35,6.56-10.92c6,0.33,10.96-0.97,15.52-5.18c1.96-1.8,5.37-2.36,8.23-2.77c5.84-0.85,9.02,4.1,13.41,6.57
	c15.48,8.7,31.14,17.1,46.92,25.25c3.41,1.76,7.59,2.73,11.44,2.83c7.62,0.21,15.26-0.44,22.89-0.73
	C1919.76,438.95,1919.76,402.95,1919.76,366.95z M1182.66,788.01c-0.77,1.71-3.11,3.27-5.03,3.8c-4.91,1.36-9.98,2.1-15.29,3.15
	c0.41,2.01,0.67,3.61,1.06,5.17c1.54,6.08,5.65,7.28,10.58,3.12c0.63-0.54,1.09-1.41,1.8-1.69c2.31-0.91,4.7-1.61,7.06-2.39
	c0.67,2.21,2.1,4.55,1.75,6.59c-0.27,1.58-2.54,3.5-4.3,4.03c-6.33,1.9-12.77,3.47-19.25,4.76c-3.28,0.65-5.59,1.97-6.62,5.16
	c-1.67,5.18-5.9,4.37-8.86,2.68c-5.8-3.32-10.78-7.6-10.89-15.44c-0.05-3.72-1.43-7.45-2.37-11.14c-1.32-5.14,0.09-7.52,4.96-9.62
	c13.8-5.96,28.75-9.76,40.22-20.19c3.86-3.51,6.88-7.95,10.28-11.97c1.03-1.22,2.06-2.43,3.2-3.76
	C1193.67,764.35,1188,776.18,1182.66,788.01z M1217.56,746.97c-8.55,5.36-10.89,11.43-7.43,20.42c0.29,0.75,0.4,1.56,0.65,2.58
	c-3.39,1.53-5.53,1.19-6.06-2.81c-0.57-4.26-1.46-8.49-1.76-12.77c-0.48-6.85,3.28-12.06,7.92-16.33c4-3.68,8.6-6.82,13.32-9.54
	c2.48-1.43,5.79-1.42,9.3-2.19C1231.6,737.19,1224.48,742.63,1217.56,746.97z M1919.76,0c-141.65,0-283.3,0-424.95,0
	c-1.53,7.13-3.06,14.27-4.69,21.85c1.29,0.9,2.68,2.06,4.25,2.91c3.06,1.65,3.57,3.91,2.44,7.07c-2.16,6.04-4.71,12.04-5.98,18.29
	c-1.9,9.34-7.64,14.44-16.3,16.44c-10.28,2.38-19.43,6.27-25.91,15.07c-0.79,1.07-2.59,2.35-3.62,2.13
	c-5.08-1.08-10.04-2.78-15.1-3.95c-2.42-0.56-5.13-1.04-7.47-0.51c-6.07,1.37-11.94,3.59-18.01,4.96c-4,0.9-7.48,1.98-10.03,5.56
	c-1.71,2.41-3.89,4.74-6.37,6.29c-4.18,2.61-5.68,6.48-7.32,10.8c-1.95,5.14-3.74,10.74-9.41,13.45c-4.67,2.24-9.7,4.02-13.84,7.01
	c-6.27,4.52-12.35,8.37-20.48,5.68c-0.58-0.19-1.36-0.04-1.97,0.16c-9.81,3.22-19.62,6.37-25.33,16.15
	c-4.24,7.26-10.53,10.37-19.15,9.85c-3.71-0.23-8.28,0.71-11.22,2.83c-9.77,7.06-19.06,14.81-28.29,22.58
	c-1.11,0.93-1.51,3.92-0.92,5.44c1.86,4.74,1.86,8.93-1.58,12.9c-1.19,1.37-2.9,2.73-3.21,4.32c-0.46,2.4-0.35,7.03,0.32,7.18
	c6.55,1.5,4.83,6.41,5.3,10.71c0.8,7.24-1.47,12.73-7.09,17.5c-5.55,4.71-11.32,9.53-12.97,17.32c-0.44,2.09-2.09,4.26-1.72,6.1
	c0.42,2.08,2.43,5.35,3.85,5.41c3.44,0.13,7.17-0.58,9.04-4.65c2.59-5.62,4.68-6.22,10.15-3.19c2.75,1.52,5.12,3.89,8,4.99
	c2.7,1.03,6.18,1.91,8.73,1.08c8.3-2.71,13.55-12.4,11.69-21.97c-1.41-7.24,1.03-13.31,3.61-19.58c1.26-3.06,3.12-3.68,6.35-2.53
	c1.84,0.66,4.67,0.5,6.26-0.52c3.16-2.03,6.44-4.47,8.49-7.53c5.97-8.9,14.09-15.35,22.49-21.63c6.67-4.99,13.2-10.17,15.01-19.03
	c0.66-3.23,1.05-6.55,2.06-9.68c2.87-8.94,5.18-18.87,14.69-22.95c11.78-5.05,24.34-8.25,36.25-13.02
	c7.3-2.93,14.97-6.27,20.6-11.46c3.19-2.94,6.05-4.73,9.65-6.8c3.72-2.14,6.94-2.76,10.79-3.13c4.26-0.41,6.93-3.16,9.46-6.55
	c1.54-2.06,4.49-3.77,7.04-4.19c4.18-0.68,8.55-0.18,12.87-0.18c1.16-7.77,4.86-12.03,12.56-12.2c1.91-0.04,4.03-0.73,5.64-1.76
	c5.37-3.45,10.37-1.98,15.25,0.81c5.22,2.98,12.21,1.19,13.38-4.44c3.44,0.77,6.86,1.86,10.35,2.19c1.88,0.18,4.4-0.37,5.74-1.58
	c5.67-5.12,11.22-10.37,14.11-17.83c1.42-3.66,4.04-6.42,8.65-6.31c2.12,0.05,4.26-0.54,6.37-0.94c6.74-1.28,8.23-3.02,9.58-10.38
	c0.2-1.11,1.1-2.36,2.05-3.01c2.3-1.57,4.8-2.86,7.26-4.17c2.75-1.47,5.35-2.88,7.28,1.4c0.63,1.4,2.61,2.61,4.21,3.07
	c3.32,0.96,6.77,1.55,10.21,1.9c1.49,0.15,3.56-0.16,4.53-1.11c7.6-7.4,16.37-12.96,26.29-16.49c11.08-3.94,21.88-10.3,34.41-5.15
	c3.51,1.44,7.14,2.62,10.8,3.62c3.63,0.99,7.35,1.73,11.07,2.35c2.74,0.45,5.55,0.5,8.33,0.78c8.64,0.9,16.92,0.52,23.96-5.62
	c4.5-3.92,9.15-7.68,13.91-11.28c6.51-4.92,13.24-3.54,16.75,3.95c2.57,5.49,4.15,11.47,5.84,17.33c1.37,4.74,1.28,10.12,3.5,14.35
	c6.18,11.74,12.37,23.66,20.19,34.31c7.01,9.54,13.69,19.01,18.75,29.76c2.08,4.41,5.97,8.29,9.82,11.43
	c3.1,2.53,4.43,4.52,2.53,8.19c-2.94,5.7-1.83,10.69,2.19,15.65c3.44,4.24,6.14,9.07,9.17,13.64c10.26,15.5,21.12,30.66,30.56,46.64
	c5.56,9.42,9.56,19.93,13.08,30.35c7.71,22.81,14.7,45.91,30.06,65.1c8.06,10.07,16.71,19.65,25.1,29.46
	C1919.76,221.97,1919.76,110.99,1919.76,0z M1071.87,0c-0.6,4.04-2.25,8.28-1.55,12.08c0.92,5.03,0.06,9.02-2.45,13.18
	c-1.03,1.7-1.82,3.97-1.65,5.88c0.52,5.89,2.27,11.75,2.18,17.6c-0.08,5.17,2.79,5.84,6.34,6.17c7.78,0.72,15.12-4.42,18.44-12.53
	c2.68-6.55,5.07-13.04-4.11-19.04c4.06-1.54,6.47-3.21,8.85-3.18c3.53,0.05,7.13,1.03,10.54,2.13c9.85,3.17,19.53,7.51,30.21,5.62
	c5.9-1.04,11.97-3.27,14.76-8.82c2.93-5.81,5.57-12.13,4.44-19.09C1129.19,0,1100.53,0,1071.87,0z M0,0c0,14,0,28,0,41.99
	c5.89-4.4,12.57-8.08,17.51-13.37C25.91,19.62,33.22,9.6,40.99,0C27.33,0,13.66,0,0,0z M1374.83,0c4.81,4.46,9.56,9,14.51,13.29
	c0.71,0.62,2.54,0.43,3.64,0.03c6.54-2.39,10.45-7.61,13.85-13.33C1396.16,0,1385.49,0,1374.83,0z M259.97,1079.86
	c2.37-2.76,5-5.34,7.05-8.32c4.79-6.97,13.42-10.09,20.66-5.1c1.42,0.98,5.07,0.63,6.44-0.55c8.32-7.18,16.78-14.03,27.1-18.23
	c1.31-0.53,2.41-1.59,3.61-2.4c-11.99,3-21.82,9.48-30.41,17.79c-2.57,2.49-4.49,3.11-7.73,1.28c-7.15-4.05-12.77-3.11-18.53,2.91
	c-3.89,4.06-7.48,8.4-11.2,12.61C257.97,1079.86,258.97,1079.86,259.97,1079.86z M1206.85,0c-0.21,0.79-0.59,1.57-0.6,2.36
	c-0.02,2.1-0.63,5.44,0.36,6.04c1.74,1.06,5.03,1.35,6.72,0.35c4.13-2.43,7.71-5.78,11.51-8.76C1218.85,0,1212.85,0,1206.85,0z
	 M1265.16,454.68c-9.39,1.46-18.68,3.88-28.42,1.9c-5.78-1.18-11.84-1.58-17.75-1.45c-7.76,0.18-15.52,1-23.23,2
	c-5.34,0.7-10.64,1.93-15.81,3.44c-1.49,0.43-3.64,2.85-3.44,3.98c0.45,2.54,1.59,6.11,3.53,7.04c7.55,3.66,15.33,7.15,23.39,9.37
	c6.18,1.7,12.93,1.98,19.4,1.86c6.95-0.13,13.59-0.62,19.52,4.17c1.4,1.13,4.17,0.94,6.25,0.74c3.57-0.34,7.07-1.53,10.63-1.72
	c6.58-0.37,11.12-4.19,12.61-10.6c0.76-3.28,2.13-6.48,3.67-9.49c1.41-2.76,3.41-5.22,5.33-8.08
	C1273.91,453.7,1271.95,453.62,1265.16,454.68z M1028.26,462.77c-3.54-3.66-7.83-4.61-12.29-3.5c-4.29,1.06-8.55,2.82-12.38,5.04
	c-3.41,1.97-6.45,4.77-4.74,9.71c1.47,4.27,2.61,8.65,4.02,13.4c-5.47,1.46-11.43,2.74-17.17,4.68c-4.15,1.41-8.34,3.23-11.89,5.74
	c-3.32,2.34-2.46,5.55,0.74,8.02c2.53,1.95,4.6,4.51,6.78,6.88c1.53,1.66,2.55,4.12,4.4,5.09c7.89,4.15,18.51,0.32,22-7.65
	c1.6-3.64,2.75-7.51,4.69-10.96c0.77-1.36,3.17-2.68,4.72-2.57c4.42,0.33,8.75,1.59,13.16,2.12c3.61,0.43,7.4,0.78,9.72-3.16
	c2.51-4.26,5.1-8.47,8.01-13.28C1041.43,475.84,1034.71,469.43,1028.26,462.77z M1304.62,436.67c-0.39-0.53-2.49-0.19-3.6,0.25
	c-9.88,3.91-11.26,13.18-12.99,21.83c-1.33,6.65-1.27,13.52-7.47,18.18c-1.62,1.22-2.94,3.33-3.55,5.3
	c-3.13,10.21-3.76,10.37,4.04,15.39c4.39,2.82,9.08,5.37,13.95,7.23c5.78,2.21,12.36-2,12.7-7.92c0.26-4.44-0.51-8.93-0.51-13.39
	c-0.01-8.07-3.28-16.32,2.15-24.11c1.86-2.67,2.1-6.48,3.08-9.77C1313.08,443.19,1307.52,440.63,1304.62,436.67z M1577.45,1024.25
	c-0.45-7.39-9.55-13.59-15.63-12.19c-7.91,1.83-15.74,10.35-17.14,18.14c-1.39,7.71,1.74,14.32,3.32,21.33
	c0.2,0.87,1.44,1.92,2.38,2.14c8.51,2.02,17.07,3.87,26.96,6.07C1577.45,1047.67,1578.15,1035.92,1577.45,1024.25z M643.06,949.8
	c0.99,0.61,2,1.29,3.09,1.61c10.29,2.96,18.4,8.82,24.67,17.54c1.74,2.42,4.46,4.78,7.21,5.65c3.7,1.16,7.88,0.79,11.83,1.18
	c5.01,0.5,9.36-0.71,13.65-3.53c2.43-1.59,6.01-2.58,8.85-2.19c16.61,2.24,16.59,2.41,26.17,16.69c1.11,1.66,2.09,3.44,3.41,4.92
	c3.51,3.94,6.99,7.94,10.82,11.56c8.91,8.41,18.23,16.4,26.97,24.98c4.26,4.18,8.32,7.94,14.62,8.5c8.67,0.76,16.21,4.49,23.4,9.2
	c2.14,1.4,4.88,2.79,7.29,2.7c8.94-0.34,18.02-0.48,26.75-2.2c16.27-3.21,32.36-7.37,48.48-11.33c7.55-1.86,15.64-2.95,22.36-6.52
	c15.11-8.01,29.32-17.68,44.26-26.03c13.51-7.55,27.64-9.42,41.47-0.48c10.93,7.07,22.89,5.78,34.65,4.23
	c4.63-0.61,8.89-3.99,13.32-6.11c-0.2-0.46-0.4-0.91-0.6-1.37c-1.23,0.35-2.53,0.54-3.67,1.06c-6.5,2.96-12.96,5.9-20.42,5.36
	c-7.02-0.51-14.14,0.03-20.52-4.1c-14.14-9.17-28.98-8.96-43.45-1.42c-13.66,7.13-26.72,15.41-40.12,23.06
	c-4.44,2.54-8.89,5.86-13.73,6.79c-26.02,5.02-51.2,14.21-77.83,16.08c-6.83,0.48-13.8,1.67-20.15-3.1
	c-6.16-4.63-13.29-7.58-21.1-8.12c-7.05-0.48-11.16-4.89-15.25-9.94c-3.11-3.85-6.78-7.36-10.62-10.49
	c-11.44-9.32-23.7-17.89-30.72-31.4c-4.33-8.34-10.68-12.4-19.99-13.91c-6.88-1.12-12.57-1.36-18.68,2.78
	c-7.95,5.4-23.17,2.27-28.86-5.59c-5.28-7.29-11.93-12.32-20.45-15.05c-2.54-0.82-4.98-1.96-8.67-3.44
	C642.56,949.06,642.71,949.59,643.06,949.8z M1394.59,517.08c5-2.26,8.3-4.96,6.25-11.18c-2.06-6.24-2.12-13.86-5.89-18.62
	c-5.13-6.48-13.73-9-22.32-9.16c-1.38-0.03-3.99,1.77-3.99,2.72c0.03,7.37-1.19,15.43,1.39,21.92c2.94,7.4,9.41,13.39,14.46,20.15
	C1388.01,520.84,1391.16,518.64,1394.59,517.08z M639.77,973.14c-1.9,1.06-4.04,1.84-5.66,3.23c-3.01,2.6-5.52,5.8-8.6,8.31
	c-3.99,3.24-3.32,7.98-0.95,10.13c4.83,4.39,4.74,9.93,5.98,15.27c1.48,6.41,5.08,8.1,10.38,3.82c4.02-3.25,6.78-8,10.44-11.76
	c7.45-7.65,9.35-15.91,4.82-25.94c-1.26-2.79-2.18-3.6-4.83-3.2c-3.68,0.55-7.37,1.04-11.05,1.55
	C640.12,974.08,639.94,973.61,639.77,973.14z M1788.15,781.86c-3.75,3.27-5.48,6.83-4.19,11.17c1.15,3.84,3.03,7.8,5.66,10.75
	c3,3.36,9.88,1.29,11.79-3.46c3-7.49,6.31-14.69,13.55-18.92c8.95-5.23,9.54-14.29,11.94-23.59
	C1815.92,761.69,1797.45,773.77,1788.15,781.86z M1000.84,1037.42c4.5-2.8,8.64-6.27,13.36-8.58c4.39-2.14,7.14-5.32,8.79-9.59
	c0.6-1.56,0.84-4.73,0.23-5.02c-1.95-0.93-4.56-1.54-6.6-1.03c-6.52,1.64-12.86,4.02-19.36,5.76c-4.35,1.17-10.37,7.81-10.28,12.02
	C987.08,1035.73,996.45,1040.16,1000.84,1037.42z M1086.68,459.11c2.45,1.07,7.04,1.17,8.46-0.35c1.69-1.81,2.19-6.32,1.16-8.8
	c-2.59-6.21-14.74-7.8-20.03-3.17C1077.71,452.99,1081.61,456.9,1086.68,459.11z M901.61,907.1c1.65,1.65,3.1,3.71,5.09,4.72
	c1.2,0.61,3.25-0.46,4.92-0.78c-0.62-3.25-0.48-6.96-2.08-9.64c-1.58-2.65-4.9-4.27-7.71-6.55
	C896.07,901.56,896.06,901.56,901.61,907.1z M751.13,229.79c1.2,1.07,4.2,1.9,5.09,1.2c2.24-1.77,5.17-4.42,5.25-6.8
	c0.19-6.2-1.9-7.73-8.69-8.85C749.55,220.38,748.51,227.45,751.13,229.79z M923.69,911.29c3.58-2.98,6.74-5.75,10.04-8.34
	c4.11-3.24,4.22-4.3,0.25-8.88C927.98,898.17,922.05,901.93,923.69,911.29z"/>
</svg>
